<svg xmlns="http://www.w3.org/2000/svg" version="1.1" xmlns:xlink="http://www.w3.org/1999/xlink" xmlns:svgjs="http://svgjs.dev/svgjs" width="1500" height="1500" viewBox="0 0 1500 1500"><g transform="matrix(1,0,0,1,-0.21332335329316265,-0.21332335329350371)"><svg viewBox="0 0 334 334" data-background-color="#C8C8C800" preserveAspectRatio="xMidYMid meet" height="1500" width="1500" xmlns="http://www.w3.org/2000/svg" xmlns:xlink="http://www.w3.org/1999/xlink"><g id="tight-bounds" transform="matrix(1,0,0,1,0.04749999999998522,0.04750000000001364)"><svg viewBox="0 0 333.90454557049503 333.90454557049503" height="333.90454557049503" width="333.90454557049503"><g><svg></svg></g><g><svg viewBox="0 0 333.90454557049503 333.90454557049503" height="333.90454557049503" width="333.90454557049503"><g><path d="M0 166.952c0-92.205 74.747-166.952 166.952-166.952 92.205 0 166.952 74.747 166.953 166.952 0 92.205-74.747 166.952-166.953 166.953-92.205 0-166.952-74.747-166.952-166.953zM166.952 322.334c85.815 0 155.382-69.567 155.382-155.382 0-85.815-69.567-155.382-155.382-155.382-85.815 0-155.382 69.567-155.382 155.382 0 85.815 69.567 155.382 155.382 155.382z" data-fill-palette-color="tertiary" fill="#000000" stroke="transparent"></path><ellipse rx="160.27418187383762" ry="160.27418187383762" cx="166.95227278524752" cy="166.95227278524752" fill="#000000" stroke="transparent" stroke-width="0" fill-opacity="1" data-fill-palette-color="tertiary"></ellipse></g><g transform="matrix(1,0,0,1,113.60581013066098,71.17305217166896)"><svg viewBox="0 0 106.69292530917305 191.55844122715712" height="191.55844122715712" width="106.69292530917305"><g><svg viewBox="0 0 106.69292530917305 191.55844122715712" height="191.55844122715712" width="106.69292530917305"><g><svg viewBox="0 0 159.2981505217297 286.0068304987044" height="191.55844122715712" width="106.69292530917305"><g><svg viewBox="0 0 159.2981505217297 191.55844122715715" height="191.55844122715715" width="159.2981505217297"><g id="textblocktransform"><svg viewBox="0 0 159.2981505217297 191.55844122715715" height="191.55844122715715" width="159.2981505217297" id="textblock"><g><svg viewBox="0 0 159.2981505217297 191.55844122715715" height="191.55844122715715" width="159.2981505217297"><g transform="matrix(1,0,0,1,0,0)"><svg width="159.2981505217297" viewBox="0.34375 -39.95 33.596141802400005 40.400000000000006" height="191.55844122715715" data-palette-color="#c8c8c8"><path d="M28.15-1.2L17.15-34.8 6.2-1.2 6.2-1.25Q5.9-0.5 5.38-0.03 4.85 0.45 4.1 0.45L4.1 0.45Q3.7 0.45 3.33 0.38 2.95 0.3 2.55 0.2L2.55 0.2 2.6 0.2Q-0.25-0.7 0.5-3L0.5-3 11.9-37.65Q12.15-38.45 12.78-39 13.4-39.55 14.25-39.65L14.25-39.65Q15.1-39.8 15.9-39.88 16.7-39.95 17.15-39.95L17.15-39.95Q17.6-39.95 18.4-39.88 19.2-39.8 20.05-39.7L20.05-39.7Q20.75-39.6 21.43-38.95 22.1-38.3 22.45-37.65L22.45-37.65Q25.25-29.05 28.13-20.33 31-11.6 33.8-3L33.8-3Q34.5-0.7 31.7 0.2L31.7 0.2Q31.3 0.3 30.98 0.38 30.65 0.45 30.25 0.45L30.25 0.45Q29.55 0.45 28.98-0.03 28.4-0.5 28.15-1.25L28.15-1.25 28.15-1.2ZM20.9-12L20.9-12Q20.9-10.4 19.78-9.28 18.65-8.15 17.05-8.15L17.05-8.15Q15.45-8.15 14.35-9.28 13.25-10.4 13.25-12L13.25-12Q13.25-13.6 14.35-14.73 15.45-15.85 17.05-15.85L17.05-15.85Q18.65-15.85 19.78-14.73 20.9-13.6 20.9-12Z" opacity="1" transform="matrix(1,0,0,1,0,0)" fill="#c8c8c8" class="wordmark-text-0" data-fill-palette-color="quaternary" id="text-0"></path></svg></g></svg></g></svg></g></svg></g><g transform="matrix(1,0,0,1,55.03751100525761,236.7807917982995)"><svg viewBox="0 0 49.223128511214476 49.22603870040491" height="49.22603870040491" width="49.223128511214476"><g><svg xmlns="http://www.w3.org/2000/svg" xmlns:xlink="http://www.w3.org/1999/xlink" version="1.1" x="0" y="0" viewBox="8.085714285714285 8.098169278175142 83.79687644989187 83.80183072182484" enable-background="new 0 0 100 100" xml:space="preserve" height="49.22603870040491" width="49.223128511214476" class="icon-icon-0" data-fill-palette-color="quaternary" id="icon-0"><path d="M50 77.1c3.6 0 7.1-0.7 10.4-2.1 13.8-5.7 20.4-21.6 14.7-35.5C70.9 29.4 61 22.9 50 22.9c-3.6 0-7.1 0.7-10.4 2.1-13.8 5.7-20.4 21.6-14.7 35.5C29.1 70.6 39 77.1 50 77.1zM30.3 61.7h5.5c1.1 3.3 2.6 6.5 4.4 9.1C36.2 68.8 32.7 65.7 30.3 61.7zM71.7 42.6c1.7 5 1.6 10.2 0 14.9h-6c0.5-2.5 0.8-5.1 0.8-7.5 0-2.5-0.2-5-0.7-7.4H71.7zM62.2 50c0 2.4-0.3 5-1 7.5h-9V42.6h9.2C62 44.9 62.2 47.4 62.2 50zM48 72.2c-3.1-1.4-5.9-5.6-7.7-10.5H48V72.2zM52.3 72.2V61.7H60C58.1 66.7 55.3 70.9 52.3 72.2zM52.3 38.3V27.6c3.2 1.3 6.2 5.4 8 10.7H52.3zM48 27.6v10.7h-8C41.8 33 44.8 28.9 48 27.6zM48 42.6v14.9h-9c-0.6-2.5-1-5.1-1-7.5 0-2.5 0.3-5 0.8-7.4H48zM34.7 57.4h-6.3c-1.7-5-1.6-10.2 0-14.9h6.1C34 45 33.8 47.5 33.8 50 33.8 52.3 34.1 54.8 34.7 57.4zM60.2 70.5c0.6-0.9 1.3-1.9 1.8-3 0.9-1.8 1.8-3.7 2.4-5.8h5.2C67.5 65.4 64.3 68.5 60.2 70.5zM69.7 38.3h-4.9c-0.7-2.3-1.6-4.6-2.7-6.5-0.4-0.7-0.8-1.3-1.2-1.9C64.5 31.8 67.5 34.7 69.7 38.3zM39.5 29.6c-0.5 0.7-0.9 1.4-1.3 2.1-1.1 2-2 4.2-2.7 6.5h-5.2C32.5 34.7 35.6 31.7 39.5 29.6zM49.5 8.1c10.8-0.1 21.1 3.9 29 11.2l0-3.2c0-1.2 0.9-2.1 2.1-2.1 0 0 0 0 0 0 1.2 0 2.1 0.9 2.1 2.1l0.1 8.3c0 1.2-0.9 2.1-2.1 2.1l-8.3 0.1c0 0 0 0 0 0-1.2 0-2.1-0.9-2.1-2.1 0-1.2 0.9-2.1 2.1-2.1l3.2 0c-7.1-6.5-16.2-10.1-25.9-10-10.1 0.1-19.5 4.1-26.5 11.3C12.9 34.1 9.6 49.1 14.5 62.8c0.4 1.1-0.2 2.3-1.3 2.7-0.2 0.1-0.5 0.1-0.7 0.1-0.9 0-1.7-0.5-2-1.4C7.9 56.9 7.4 49 9 41.4c1.6-7.8 5.5-15 11.1-20.7C27.8 12.7 38.3 8.2 49.5 8.1zM76.9 76.3c10.2-10.4 13.4-25.4 8.5-39.1-0.4-1.1 0.2-2.3 1.3-2.7 1.1-0.4 2.3 0.2 2.7 1.3 2.6 7.3 3.2 15.2 1.6 22.8-1.6 7.8-5.5 15-11.1 20.7-7.8 8-18.3 12.5-29.5 12.6-0.2 0-0.3 0-0.5 0-10.7 0-20.7-4-28.5-11.2l0 3.2c0 1.2-0.9 2.1-2.1 2.1 0 0 0 0 0 0-1.2 0-2.1-0.9-2.1-2.1l-0.1-8.3c0-0.6 0.2-1.1 0.6-1.5 0.4-0.4 0.9-0.6 1.5-0.6l8.3-0.1c1.2 0 2.1 0.9 2.1 2.1 0 1.2-0.9 2.1-2.1 2.1l-3.2 0C39.4 91.4 62.7 90.9 76.9 76.3z" fill="#c8c8c8" data-fill-palette-color="quaternary"></path></svg></g></svg></g><g></g></svg></g></svg></g></svg></g></svg></g><defs></defs></svg><rect width="333.90454557049503" height="333.90454557049503" fill="none" stroke="none" visibility="hidden"></rect></g></svg></g></svg>